<?xml version="1.0" standalone="no"?>
<!DOCTYPE svg PUBLIC "-//W3C//DTD SVG 1.1//EN" "http://www.w3.org/Graphics/SVG/1.1/DTD/svg11.dtd" >
<svg xmlns="http://www.w3.org/2000/svg">
<metadata>
Created by FontForge 20120731 at Wed Jun 15 15:01:02 2016
 By admin
</metadata>
<defs>
<font id="iconfont" horiz-adv-x="1024" >
  <font-face 
    font-family="iconfont"
    font-weight="500"
    font-stretch="normal"
    units-per-em="1024"
    panose-1="2 0 6 3 0 0 0 0 0 0"
    ascent="896"
    descent="-128"
    x-height="792"
    bbox="-0.53125 -220 2109.11 1754"
    underline-thickness="50"
    underline-position="-100"
    unicode-range="U+0078-E618"
  />
<missing-glyph horiz-adv-x="374" 
d="M34 0v682h272v-682h-272zM68 34h204v614h-204v-614z" />
    <glyph glyph-name=".notdef" horiz-adv-x="374" 
d="M34 0v682h272v-682h-272zM68 34h204v614h-204v-614z" />
    <glyph glyph-name=".null" horiz-adv-x="0" 
 />
    <glyph glyph-name="nonmarkingreturn" horiz-adv-x="341" 
 />
    <glyph glyph-name="x" unicode="x" horiz-adv-x="1001" 
d="M281 543q-27 -1 -53 -1h-83q-18 0 -36.5 -6t-32.5 -18.5t-23 -32t-9 -45.5v-76h912v41q0 16 -0.5 30t-0.5 18q0 13 -5 29t-17 29.5t-31.5 22.5t-49.5 9h-133v-97h-438v97zM955 310v-52q0 -23 0.5 -52t0.5 -58t-10.5 -47.5t-26 -30t-33 -16t-31.5 -4.5q-14 -1 -29.5 -0.5
t-29.5 0.5h-32l-45 128h-439l-44 -128h-29h-34q-20 0 -45 1q-25 0 -41 9.5t-25.5 23t-13.5 29.5t-4 30v167h911zM163 247q-12 0 -21 -8.5t-9 -21.5t9 -21.5t21 -8.5q13 0 22 8.5t9 21.5t-9 21.5t-22 8.5zM316 123q-8 -26 -14 -48q-5 -19 -10.5 -37t-7.5 -25t-3 -15t1 -14.5
t9.5 -10.5t21.5 -4h37h67h81h80h64h36q23 0 34 12t2 38q-5 13 -9.5 30.5t-9.5 34.5q-5 19 -11 39h-368zM336 498v228q0 11 2.5 23t10 21.5t20.5 15.5t34 6h188q31 0 51.5 -14.5t20.5 -52.5v-227h-327z" />
    <glyph glyph-name="uniE600" unicode="&#xe600;" horiz-adv-x="1000" 
d="M880 607q-63 66 -155 66q-69 0 -128 -39q-49 -33 -82 -89q-33 57 -83 91q-58 40 -126 40q-92 0 -156 -68q-68 -73 -69 -192q0 -92 69 -161q39 -39 137 -95q32 -18 46 -27q65 -40 112.5 -90t54.5 -75l8 -26h16l7 27q6 22 55 73t111 93q18 12 57 35q93 54 131 92
q65 67 64 156q-1 118 -69 189zM738 197q-40 -23 -59 -35q-49 -34 -94.5 -77t-68.5 -77q-17 25 -44 54q-54 56 -122 98q-15 9 -47 28q-26 15 -39.5 23t-37 23.5t-36.5 27t-30 30t-25.5 36t-15 40.5t-6.5 48q1 56 18 101t45 72t61 41t69 14q61 0 112.5 -37.5t81.5 -103.5
l15 -32l15 32q28 64 80.5 101t114.5 37q35 0 68.5 -14t61.5 -40t45 -70t17 -100q0 -27 -6 -51.5t-21 -45t-28.5 -36t-38.5 -33t-40 -27t-45 -27.5z" />
    <glyph glyph-name="uniE601" unicode="&#xe601;" 
d="M822 318l-2 2l-524 492l-94 -100l427 -401l-397 -430l100 -93l488 528z" />
    <glyph glyph-name="uniE602" unicode="&#xe602;" 
d="M924 118l-68 119q-5 9 -14.5 11.5t-17.5 -2.5t-10.5 -14t2.5 -18l68 -119q13 -21 6 -33t-32 -12h-699q-25 0 -31.5 12t5.5 34l349 604q12 21 26.5 21t26.5 -20l170 -294q4 -9 13.5 -11.5t18 2.5t11 14t-2.5 18l-170 294q-25 43 -66.5 42.5t-66.5 -42.5l-349 -605
q-26 -45 -6 -80t72 -35h699q52 0 72 35t-6 79zM510.5 548q-9.5 0 -16.5 -7t-7 -16.5t7 -16.5t16.5 -7t16.5 7t7 16.5t-7 16.5t-16.5 7zM487 435v-289q0 -9 7 -15t16.5 -6t16.5 6t7 15v289q0 8 -7 14t-16.5 6t-16.5 -6t-7 -14z" />
    <glyph glyph-name="uniE603" unicode="&#xe603;" 
d="M981 485q-40 92 -109 161t-161.5 109t-197.5 40t-197 -40t-161 -109t-109 -161.5t-40 -197.5t40 -197t109 -161t161 -109t197 -40t197.5 40t161.5 109t109 161t40 197t-40 198zM513 -40q-24 0 -40.5 16.5t-16.5 40.5t16.5 41t40.5 17t41 -17t17 -41t-17 -40.5t-41 -16.5z
M571 198q0 -23 -17 -40t-41 -17t-40.5 17t-16.5 40v360q0 24 16.5 40.5t40.5 16.5t41 -16.5t17 -40.5v-360zM571 198z" />
    <glyph glyph-name="uniE604" unicode="&#xe604;" 
d="M971 317q-159 163 -438 446q-11 12 -25 12q-15 0 -27 -12q-18 -19 -39 -40.5t-46.5 -48t-39.5 -40.5q-224 -233 -302 -314q-6 -5 -6 -10q-1 -36 22 -61q16 -17 37 -17h2h16h11h11h14h2q8 0 8 -10v-243v-77q1 -36 21 -56.5t55 -20.5h20h76h59h3h8v11v189v133q0 19 19 19
h80h81q8 0 11.5 -2.5t6.5 -11.5q1 -5 1 -13v-314v-10l5 -1h47h47q35 0 62 1q33 0 58 26t25 59q1 265 1 314q0 9 9 9h1h26h29q41 1 50 39q3 11 4 32q0 7 -5 12z" />
    <glyph glyph-name="uniE605" unicode="&#xe605;" 
d="M512 592q-24 58 -63 95t-81 49t-85.5 2.5t-77.5 -39t-55.5 -82t-21.5 -119.5q0 -40 19 -79.5t49 -70.5q17 -17 96.5 -91t149.5 -140t70 -65q257 237 307 286q36 36 57 80.5t20 80.5q0 67 -22 119.5t-57 80.5t-78.5 37t-85.5 -3.5t-80 -48.5t-61 -92z" />
    <glyph glyph-name="uniE606" unicode="&#xe606;" 
d="M899 641l-6 2q-100 20 -188.5 65.5t-181.5 116.5q-6 4 -15 4t-14 -4q-94 -73 -162 -111q-18 -10 -37 -18.5t-46 -17t-37.5 -11.5t-48 -13t-39.5 -10q-13 -4 -17.5 -14.5t-0.5 -22.5q10 -231 81 -387q40 -88 125.5 -158.5t189.5 -119.5q6 -3 12 -3q9 -1 17 3
q100 49 182 120t125 158q72 145 82 394q1 23 -21 27zM789 248q-66 -144 -273 -250q-199 98 -274 239q-68 126 -80 358q116 31 180 59q62 28 167 109q187 -136 354 -172q-11 -207 -74 -343zM695 528q-148 -149 -221 -223q-78 78 -117 118q-12 12 -27.5 6.5t-19.5 -19.5t7 -27
q22 -23 67 -68t68 -69q1 0 2 -1q8 -9 18.5 -10t20.5 9q19 18 107.5 107.5t134.5 136.5q12 12 6.5 27.5t-19 19.5t-27.5 -7z" />
    <glyph glyph-name="uniE607" unicode="&#xe607;" 
d="M955 471l-387 334l-3 2q-4 4 -6 4q-23 18 -43 18h-6q-20 0 -40 -20l-1 -1l-1 -1l-1 -1h-1l-1 -1l-1 -1l-1 -1v-1l-2 -2l-392 -329q-44 -34 -47 -65q-3 -20 16 -42l2 -2q10 -12 22 -16t38 -4h51v-303q0 -48 27 -75t74 -27h151v305q0 11 5 16.5t19 5.5h170q12 0 17 -4
t5 -18v-303h151q47 0 73.5 26t26.5 72v307h63q19 0 28 3t18 13q18 17 18 46q4 34 -42 65zM957 386l-4 -4h-16h-100v-345q0 -60 -62 -60h-96h-18v262q0 30 -15.5 46.5t-44.5 16.5h-169q-30 0 -47.5 -16t-17.5 -44v-265h-113q-63 0 -63 64v341h-89h-14q-6 0 -9.5 1.5t-4 2
t-3.5 2.5l-4 3q-9 9 -5 13q0 12 31 38l390 329q2 1 5.5 4.5t5.5 4.5q11 11 16 11h6q7 0 18 -11q5 -4 9 -6l388 -334l2 -3q29 -18 29 -37q3 -6 -5 -14z" />
    <glyph glyph-name="uniE608" unicode="&#xe608;" 
d="M891 -24h-350v408h355v-427l-5 19v0zM129 384h351v-408h-351v408v0zM65 571h415v-126h-415v126v0zM956 445h-415v126h415v-126v0zM248 792q53 0 110 -48t98 -108h-109q-61 0 -108.5 29t-47.5 80q0 25 13.5 36t43.5 11v0zM772 792q58 0 58 -51q0 -48 -46.5 -78.5
t-106.5 -30.5h-109q41 63 96 111.5t108 48.5v0zM1021 571q0 26 -18.5 43.5t-46.5 17.5h-109q48 48 48 109q0 47 -29.5 79.5t-93.5 32.5q-128 0 -262 -190q-133 190 -265 190q-62 0 -92.5 -33t-30.5 -79q0 -66 48 -109h-105q-26 0 -45.5 -18t-19.5 -43v-187h65v-408
q0 -26 18 -43.5t46 -17.5h766q26 0 45 18t19 43v408h65l-3 187v0z" />
    <glyph glyph-name="uniE609" unicode="&#xe609;" 
d="M1010 649q-12 12 -29.5 12t-30.5 -13l-435 -439l-441 438q-13 12 -30.5 12t-30 -12.5t-12.5 -30t13 -30.5l469 -465l1 -1h1q0 -1 1 -1q12 -12 29 -12q18 0 31 12l464 470q13 12 13 29.5t-13 30.5z" />
    <glyph glyph-name="uniE60A" unicode="&#xe60a;" 
d="M777 492q-82 0 -139 58l-211 -114q9 -28 9 -52q0 -41 -21 -81l203 -110q26 38 68 60.5t91 22.5q79 0 134.5 -52.5t55.5 -127.5t-55.5 -127.5t-134 -52.5t-134 53t-55.5 127q0 1 2 20l-230 124l1 1q-51 -37 -114 -37q-79 0 -134.5 52.5t-55.5 127.5t55.5 127.5t134.5 52.5
q82 0 139 -58l211 114q-9 28 -9 52q0 74 55.5 127t134 53t134 -53t55.5 -127.5t-55.5 -127t-134.5 -52.5zM777 -12q47 0 80.5 31.5t33.5 76.5t-33.5 76.5t-80.5 31.5t-80 -31.5t-33 -76.5t33 -76.5t80 -31.5zM247 492q-47 0 -80.5 -31.5t-33.5 -76.5t33.5 -76.5t80.5 -31.5
t80 31.5t33 76.5t-33 76.5t-80 31.5zM777 780q-47 0 -80 -31.5t-33 -76.5t33 -76.5t80 -31.5t80.5 31.5t33.5 76.5t-33.5 76.5t-80.5 31.5z" />
    <glyph glyph-name="uniE60B" unicode="&#xe60b;" 
d="M440.5 493q71.5 0 138.5 15.5t109 43.5v-71h54v156q0 44 -45.5 77.5t-113 49.5t-143 16t-142.5 -16t-112.5 -49.5t-45.5 -77.5v-424q0 -44 45.5 -77.5t112.5 -49.5t143 -16v53q-107 0 -177.5 29.5t-70.5 60.5v128q43 -29 109.5 -44.5t138.5 -15.5v54q-107 0 -177.5 29
t-70.5 61v127q43 -28 109.5 -43.5t138 -15.5zM441 726q107 0 177 -29t70 -60.5t-70 -60.5t-177 -29t-177.5 29t-70.5 60.5t70.5 60.5t177.5 29zM681.5 464q-94.5 0 -149 -30.5t-54.5 -71.5v-272q0 -41 54.5 -71.5t148.5 -30.5t148 30t55 71v273q0 41 -54 71.5t-148.5 30.5z
M681.5 410q45.5 0 81.5 -9.5t51.5 -20t15.5 -18.5t-15.5 -19t-51.5 -20t-81.5 -9t-81.5 9t-52 20t-16 19t16 18.5t52 20t81.5 9.5zM681.5 42q-45.5 0 -81.5 9t-52 20t-16 19v65q57 -31 149.5 -31t148.5 31v-65q0 -8 -15.5 -19t-51.5 -20t-81.5 -9zM681.5 178
q-45.5 0 -81.5 9t-52 20t-16 19v65q57 -31 149.5 -31t148.5 31v-65q0 -8 -15.5 -19t-51.5 -20t-81.5 -9z" />
    <glyph glyph-name="uniE60C" unicode="&#xe60c;" 
d="M596 357h-69v27h69q7 0 7 7v14q0 6 -7 6h-58l63 61q5 5 0 9l-10 10q-5 5 -10 0l-69 -67l-69 67q-5 5 -10 0l-10 -9q-5 -5 0 -10l63 -61h-58q-7 0 -7 -6v-14q0 -7 7 -7h69v-27h-69q-7 0 -7 -7v-14q0 -7 7 -7h69v-48q0 -7 7 -7h16q7 0 7 7v48h69q7 0 7 7v14q0 7 -7 7z
M512 832q-76 0 -130 -3t-101.5 -13t-79 -24t-57 -40t-40 -57t-24 -79t-13 -102t-3.5 -130t3 -130t13 -101.5t24 -79t40 -57t57 -40t79 -24t102 -13t129.5 -3.5t130 3.5t102 13t78.5 24t57 40.5t40 57t24 79t13.5 102t3.5 129t-3 129t-12.5 101.5t-24 79t-40 57t-57 40
t-79.5 24.5t-102 13.5t-130 3.5zM786 219q0 -17 -13 -29t-32 -12h-458q-19 0 -32 12t-13 29v83q0 18 16 27q45 14 45 55q0 36 -46 55q-15 7 -15 27v83q0 17 13 29t32 12h458q19 0 32 -12t13 -29v-83q0 -7 -0.5 -10.5t-4 -8t-10.5 -8.5q-26 -13 -36 -24.5t-10 -30.5t10.5 -31
t35.5 -24q9 -6 12 -11t3 -16v-83z" />
    <glyph glyph-name="uniE60D" unicode="&#xe60d;" horiz-adv-x="1060" 
d="M327 568q-2 0 -4 1h-13v-51h28v-180h410v39h-154v37h154v37h-154v39h154v41h-154v37h156v41h-157l4 20h-61l-4 -20h-112l6 20h-52l-23 -42q-7 -19 -24 -19zM396 552l10 16h130v-37h-140v21zM394 490h140v-39h-140v39zM394 414h140v-37h-140v37zM750 229v80h-414v-117h370
q43 2 44 37zM696 238q0 -13 -16 -13h-290v43h306v-30zM526 896l-410 -134l2 -522l1 -5q19 -90 95 -166q61 -62 273 -177q19 -10 22 -12l15 -8l18 10q37 18 80 41.5t113.5 68t102.5 76.5q35 36 59 79t29 59.5t7 28.5l3 527zM871 244q-17 -69 -78 -131q-62 -63 -268 -169l-8 4
q-204 111 -258 165q-61 62 -78 131l-1 472l346 113l346 -113z" />
    <glyph glyph-name="uniE60E" unicode="&#xe60e;" horiz-adv-x="1060" 
d="M368 629l-23 -79q-3 -15 -17 -15h-10v-49h34v-300h50v375l20 68h-54zM634 197q7 -7 21 -5h1h100v33h-63h-2q-11 4 -11 15v290h44q28 0 28 20v71h-43v-30q2 -5 -1 -9q-4 -5 -12 -5h-127l6 52h-50l-6 -52h-77v-47h74l-27 -289q-3 -18 -17 -18h-28v-35h50q39 0 42 39l29 303
h62v-304q0 -21 7 -29zM533 896l-410 -134l2 -522l1 -5q19 -90 95 -166q61 -62 273 -177q19 -10 21 -12l15 -8l19 10q37 18 80 41.5t113.5 68t102.5 76.5q35 36 59 79t29 59.5t7 28.5l2 527zM877 244q-17 -69 -77 -131q-63 -63 -269 -169l-7 4q-204 111 -258 165
q-61 62 -78 131l-2 472l347 113l346 -113z" />
    <glyph glyph-name="uniE60F" unicode="&#xe60f;" horiz-adv-x="1060" 
d="M787 394v49h-176v133h178v45h-425v-45h186v-339h-95v260h-61v-260h-42v-43h445v43h-186v157h176zM570 896l-409 -134l2 -522v-5q20 -90 96 -166q60 -62 272 -177q20 -10 22 -12l15 -8l18 10q38 18 80.5 41.5t113.5 68t102 76.5q35 36 59 79t29 59.5t7 28.5l3 527z
M915 244q-17 -69 -78 -131q-62 -63 -268 -169l-8 4q-204 111 -258 165q-60 62 -77 131l-2 472l346 113l347 -113z" />
    <glyph glyph-name="uniE610" unicode="&#xe610;" 
d="M515.5 -65q-91.5 0 -174.5 36t-143.5 96t-96 143.5t-35.5 174.5t35.5 174t96 143t143.5 95.5t174 35.5q136 0 234 -68q6 -5 7.5 -12.5t-3 -14t-12.5 -8t-14 2.5q-88 62 -212 62q-111 0 -206 -55t-150 -149.5t-55 -205.5q0 -112 55 -206.5t150 -150t206.5 -55.5t206 55
t150 149.5t55.5 206.5q0 74 -25 142.5t-71 118.5q-5 6 -4.5 13.5t6 13t13.5 5t13 -6.5q51 -54 78.5 -129.5t27.5 -156.5q0 -91 -36 -174t-96 -143.5t-143 -96t-174.5 -35.5zM316 200q-6 0 -10.5 4.5t-4.5 10.5v215q0 6 4.5 10.5t10.5 4.5t10.5 -4.5t4.5 -10.5v-215
q0 -6 -4.5 -10.5t-10.5 -4.5zM684 445h-90q5 14 8.5 40.5t0.5 50.5q-5 46 -45 60q-30 10 -48 -8q-12 -12 -24 -61q-8 -34 -13 -43q-16 -26 -53 -39h-43q-6 0 -10.5 -4.5t-4.5 -10.5v-215q0 -6 4.5 -10.5t10.5 -4.5h42q56 -31 116 -31h103q16 0 33 6.5t24.5 18.5t21 99.5
t13.5 105.5t-14.5 32t-31.5 14zM669 210q-1 -3 -11 -6.5t-20 -3.5h-103q-11 0 -23 1.5t-22 4.5t-19 6t-16 6.5t-12.5 6t-8.5 4.5l-3 2h-8h-30v184h30h4l1 1h1h1q48 16 69 53q8 13 17 50q10 41 16 48q5 4 18 -1q20 -8 23 -33q6 -50 -15 -97q-4 -7 0.5 -14t13.5 -7h112
q4 0 10 -5t6 -11q0 -16 -13 -97.5t-18 -91.5z" />
    <glyph glyph-name="uniE611" unicode="&#xe611;" 
d="M484 505q0 -42 -30 -72t-72 -30h-118q-42 0 -71.5 30t-29.5 72v127q0 42 29.5 71.5t71.5 29.5h118q42 0 72 -29.5t30 -71.5v-127zM862 505q0 -42 -29.5 -72t-71.5 -30h-118q-42 0 -72 30t-30 72v127q0 42 30 71.5t72 29.5h118q42 0 71.5 -29.5t29.5 -71.5v-127zM483 136
q0 -43 -29.5 -72.5t-71.5 -29.5h-118q-42 0 -72 29.5t-30 72.5v126q0 43 30 72.5t72 29.5h118q42 0 71.5 -29.5t29.5 -72.5v-126zM862 136q0 -43 -30 -72.5t-72 -29.5h-118q-42 0 -71.5 29.5t-29.5 72.5v126q0 43 29.5 72.5t71.5 29.5h118q42 0 72 -29.5t30 -72.5v-126z" />
    <glyph glyph-name="uniE612" unicode="&#xe612;" 
d="M512 719q-15 59 -80 96t-133 37q-125 0 -212 -86t-87 -213q0 -76 24 -142t60.5 -112t88.5 -93t100.5 -81.5t104 -80.5t91.5 -88q2 -3 5 -6q16 -16 38 -16t38 16q2 2 5 6q36 42 91.5 88t104 80.5t100.5 81t88.5 92.5t60.5 112t24 143q0 127 -87 213t-212 86
q-68 0 -133 -37t-80 -96zM739 660q-15 2 -25 14t-10 28q0 17 12.5 30t30.5 13q50 0 109 -58q27 -27 44 -58.5t17 -54.5q0 -17 -12.5 -29.5t-29.5 -12.5q-16 0 -28 10t-14 25q-9 33 -34.5 59t-59.5 34z" />
    <glyph glyph-name="uniE613" unicode="&#xe613;" 
d="M396 384l-3 -2l198 -198l40 39l-161 161l161 161l-40 39l-198 -198z" />
    <glyph glyph-name="uniE614" unicode="&#xe614;" 
d="M815 811l-430 -427l430 -426l-87 -86l-519 516l520 508z" />
    <glyph glyph-name="uniE615" unicode="&#xe615;" horiz-adv-x="1025" 
d="M2104 1218q-12 -27 -57 -30h-61v-314q0 -54 -40.5 -99t-92.5 -45h-140h-233h-139q-52 0 -93 45t-41 99v314h-61q-45 2 -57 30q-4 9 -5 21t7 32t26 39l389 405q37 39 90.5 39t90.5 -39l166 -172v96h139v-242l84 -87q18 -19 26 -39t7 -32t-5 -21zM1758 1031
q-58 -123 -161 -123t-162 123q-7 15 3 28.5t27.5 12.5t29.5 -21q17 -29 27.5 -43.5t30 -26.5t44.5 -12q36 0 59.5 21t41.5 61q9 19 27 20.5t29 -12t4 -28.5zM1019 360q-15 -34 -56 -37h-82v-308q0 -56 -31 -99.5t-82 -43.5h-133v328q0 25 -26.5 43t-55.5 18h-82
q-29 0 -55.5 -18t-26.5 -43v-328h-143q-52 0 -87.5 44t-35.5 99v308h-62q-41 1 -56 37q-5 10 -5.5 22t7 32t26.5 39l388 404q37 39 91 39t91 -39l145 -151q7 -5 13.5 -17t5.5 -22q-4 -28 -34 -27q-15 1 -32 21l-146 152q-18 19 -42 19q-26 0 -44 -19l-389 -404
q-1 -2 -12 -21l2 -2l1 -2h58h1h1q26 0 39 -15.5t14 -30.5v-15v-308q0 -28 18.5 -55t43.5 -27h82v267q0 51 44 87t99 36h82q55 0 99 -36t44 -87v-267h62q25 0 43 27t18 55v308q0 26 17.5 43.5t44.5 17.5h72q1 0 2 2l1 2q-10 19 -12 21l-156 161l-4 8l-2 7q0 15 10.5 25
t24.5 10q18 0 42 -30l132 -137q19 -19 26.5 -39t7 -32t-5.5 -22z" />
    <glyph glyph-name="uniE616" unicode="&#xe616;" horiz-adv-x="1025" 
d="M1019 360q-11 -26 -56 -30h-62v-314q0 -54 -40.5 -99t-92.5 -45h-140h-232h-139q-52 0 -93 45.5t-41 98.5v314h-62q-44 2 -56 30q-5 10 -5.5 22t7 32t26.5 39l388 404q37 39 91 39t91 -39l165 -172v96h140v-241l83 -87q19 -19 26.5 -39t7 -32t-5.5 -22zM674 174
q-59 -124 -162 -124q-102 0 -161 123q-7 15 2.5 28.5t27.5 13t30 -21.5q16 -28 27 -42.5t30.5 -27t43.5 -12.5q36 0 59.5 21t41.5 61q9 20 27 21t29.5 -12t4.5 -28z" />
    <glyph glyph-name="uniE617" unicode="&#xe617;" 
d="M512 -94q-97 0 -185.5 38t-152.5 102t-102 152.5t-38 185.5t38 185.5t102 152.5t152.5 102t185.5 38t185.5 -38t152.5 -102t102 -152.5t38 -185.5t-38 -185.5t-102 -152.5t-152.5 -102t-185.5 -38zM512 804q-114 0 -211 -56t-153 -153t-56 -211t56 -211t153 -153t211 -56
t211 56t153 153t56 211t-56 211t-153 153t-211 56zM845 250h-19q-9 33 -35 55t-59.5 22t-59.5 -22t-35 -55h-31q-8 33 -34 55t-60 22t-60 -22t-34 -55h-31q-9 33 -35 55t-59.5 22t-59.5 -22t-35 -55h-19q-8 39 -8 77q0 96 43.5 177.5t118.5 130.5t165 53v15q0 9 6 15.5
t15 6.5t15 -6.5t6 -15.5v-16q132 -11 222.5 -114.5t90.5 -245.5q0 -39 -8 -77zM419.5 164q14.5 0 19.5 -15h2v-7v-1v-21q0 -11 9 -21.5t19 -10.5t19.5 10t9.5 21v136h42v-136q0 -33 -20 -54.5t-50.5 -21.5t-51 21.5t-20.5 54.5v30h2q5 15 19.5 15z" />
    <glyph glyph-name="uniE618" unicode="&#xe618;" 
d="M253 750l374 -381l-374 -381l114 -116l487 497l-487 497z" />
  </font>
</defs>
</svg>
